<svg width="19" height="12" viewBox="0 0 19 12" fill="none" xmlns="http://www.w3.org/2000/svg">
<path fill-rule="evenodd" clip-rule="evenodd" d="M0 1C0 0.447715 0.447715 0 1 0H18C18.5523 0 19 0.447715 19 1V11C19 11.5523 18.5523 12 18 12H1C0.447715 12 0 11.5523 0 11V1ZM5.5 10C5.5 9.44771 5.94772 9 6.5 9H12.5C13.0523 9 13.5 9.44771 13.5 10C13.5 10.5523 13.0523 11 12.5 11H6.5C5.94772 11 5.5 10.5523 5.5 10ZM2.5 3C2.22386 3 2 3.22386 2 3.5C2 3.77614 2.22386 4 2.5 4H16.5C16.7761 4 17 3.77614 17 3.5C17 3.22386 16.7761 3 16.5 3H2.5ZM3.9292 5.5C3.9292 5.22386 4.15306 5 4.4292 5H14.5709C14.8471 5 15.0709 5.22386 15.0709 5.5C15.0709 5.77614 14.8471 6 14.5709 6H4.4292C4.15306 6 3.9292 5.77614 3.9292 5.5ZM17.8196 0.591797C17.5434 0.591797 17.3196 0.815655 17.3196 1.0918C17.3196 1.36794 17.5434 1.5918 17.8196 1.5918C18.0957 1.5918 18.3196 1.36794 18.3196 1.0918C18.3196 0.815655 18.0957 0.591797 17.8196 0.591797Z" fill="#d6d0f5"/>
</svg>
