<?xml version="1.0" encoding="utf-8"?>
<!DOCTYPE svg PUBLIC "-//W3C//DTD SVG 1.1//EN" "http://www.w3.org/Graphics/SVG/1.1/DTD/svg11.dtd">
<!--Scalable Vector Graphic-->
	<svg width="179" height="262" viewBox="0 0 179 262" fill="none" xmlns="http://www.w3.org/2000/svg">
<g opacity="0.3">
<path d="M157.762 67.3613C157.762 67.3613 151.428 37.3489 151.497 23.7386C151.635 10.1283 154.113 0.147461 154.113 0.147461C154.113 0.147461 145.026 14.4557 144.407 27.2982C143.787 40.1407 145.439 54.5188 145.439 54.5188C145.439 54.5188 139.312 30.788 140.689 21.7843C140.689 21.7843 132.29 33.8591 133.667 42.0252C133.667 42.0252 133.048 36.2321 132.635 35.0456C132.635 35.0456 125.338 48.8653 126.508 57.1012L125.613 50.9592C125.613 50.9592 119.693 61.4286 120.45 68.2686L119.693 63.1735C119.693 63.1735 115.356 75.9462 115.356 80.5528C115.424 85.1593 120.45 116.079 120.45 116.079L157.762 67.3613Z" fill="#FFC163"/>
<path d="M159.135 88.4398C159.135 88.4398 164.436 69.9438 154.523 62.1266C154.523 62.1266 149.773 66.1748 150.186 70.3625L148.327 66.5935C148.327 66.5935 141.236 72.8752 142.338 79.3663L140.479 76.2952C140.479 76.2952 133.32 79.9246 134.765 87.672L132.218 85.0896C132.218 85.0896 125.472 91.3712 126.642 98.7696C126.642 98.7696 123.544 93.3953 119.551 91.7202C119.551 91.7202 113.975 94.3027 113.631 100.654C113.218 107.006 123.475 138.344 123.475 138.344L159.135 88.4398Z" fill="#FFC163"/>
<path d="M140.203 139.74C140.203 139.74 158.102 97.9321 157.964 90.1149C157.826 82.3675 156.243 78.1798 156.243 78.1798C156.243 78.1798 149.497 83.8332 150.254 88.8586L148.946 85.648C148.946 85.648 144.265 91.1619 143.714 97.4435L142.406 94.1631C142.406 94.1631 136.967 100.724 137.036 107.494L135.04 103.655C135.04 103.655 131.323 108.89 130.359 114.544L129.12 111.752C129.12 111.752 124.714 118.522 125.058 124.943C125.402 131.365 127.192 139.88 127.192 139.88L140.203 139.74Z" fill="#FFC163"/>
<path d="M87.1273 178.128C87.1273 178.128 28.1304 192.297 -14.0004 256.579C-14.0004 256.579 -14.3446 259.371 0.938103 245.342C16.2208 231.313 41.8298 199.765 86.0258 184.27C86.0258 184.27 89.9498 182.525 87.1273 178.128Z" fill="#FFC163"/>
<path d="M119.556 195.786C119.418 196.205 118.523 197.252 119.487 198.229C120.45 199.206 124.374 202.417 124.168 206.186C124.03 209.955 119.556 213.445 119.487 212.747C119.418 212.538 121.965 208.769 121.139 206.675C121.139 206.675 120.313 211.072 117.008 211.56C114.806 211.909 119.28 210.234 118.729 206.047C118.729 206.047 117.559 209.187 113.153 208.42C109.711 207.861 115.356 208.35 116.458 205.069C117.49 201.719 116.182 200.114 115.7 199.625C115.15 199.137 112.258 196.694 110.193 197.811C108.128 198.927 107.302 202.766 106.613 201.929C105.925 201.091 107.99 196.345 110.193 195.298C112.396 194.251 114.048 196.554 114.874 196.135C115.769 195.717 117.146 193.274 117.146 193.274L119.556 195.786Z" fill="#FFC163"/>
<path d="M117.419 183.921C117.625 183.572 117.901 183.293 118.176 183.014C119.828 181.478 122.651 180.85 124.647 182.037C127.539 183.781 126.988 187.62 125.749 190.203C124.303 193.204 121.894 195.786 118.865 197.182C118.865 197.182 115.491 196.554 115.078 195.228C114.596 193.762 115.009 191.878 115.285 190.412C115.629 188.248 116.18 185.736 117.419 183.921Z" fill="#FFC163"/>
<path d="M80.9377 185.038C80.9377 185.038 100.489 195.437 126.786 188.946C131.329 187.83 135.598 185.945 139.522 183.363C146.543 178.826 152.188 172.335 156.594 165.146C158.177 162.563 159.623 159.841 160.862 157.05C161.138 156.421 161.413 155.793 161.62 155.095C163.203 150.907 164.442 146.51 166.645 142.602C168.297 139.67 171.326 137.646 174.631 137.227C175.388 137.158 176.145 137.088 176.902 136.809C178.004 136.32 178.073 135.273 177.797 134.296C177.109 131.923 176.007 129.62 174.493 127.735C172.29 124.943 169.261 122.919 165.888 121.942C163.616 121.314 161.206 121.104 158.866 121.453C155.148 122.012 151.775 123.966 148.677 126.409C144.891 129.41 141.449 133.109 138.145 135.971C137.112 136.878 136.011 137.786 134.978 138.693C124.101 147.976 113.293 157.329 102.416 166.612C95.1878 172.823 88.0971 178.966 80.9377 185.038Z" fill="#FFC163"/>
<path d="M130.226 146.999C129.606 148.744 129.193 150.489 129.055 152.373C128.711 157.538 130.432 162.843 133.736 166.751C137.523 162.982 139.726 157.678 139.726 152.373C141.584 151.605 143.305 150.419 144.751 149.023C146.059 147.767 146.816 146.161 148.124 144.905C147.918 151.815 144.751 158.515 139.588 162.982C143.65 161.726 147.505 159.632 150.74 156.91C149.363 158.376 147.987 159.841 146.679 161.307C151.084 159.911 155.077 157.189 158.037 153.56C157.831 156.84 156.798 160.121 155.146 162.982C158.037 161.098 160.309 158.306 161.548 155.095L161.686 155.235C163.269 151.047 164.508 146.65 166.711 142.741C168.364 139.81 171.393 137.786 174.697 137.367C175.454 137.297 176.211 137.227 176.969 136.948C178.07 136.46 178.139 135.413 177.864 134.435C177.175 132.062 176.074 129.759 174.559 127.875C172.356 125.083 169.327 123.059 165.954 122.082C163.682 121.453 161.273 121.244 158.932 121.593C155.215 122.151 151.842 124.106 148.744 126.549C144.958 129.55 141.515 133.249 138.211 136.111C134.7 138.972 131.809 142.741 130.226 146.999Z" fill="#FFC163"/>
<path d="M111.911 194.46C111.773 194.879 110.878 195.926 111.842 196.903C112.806 197.88 116.73 201.091 116.523 204.86C116.386 208.629 111.911 212.119 111.842 211.421C111.773 211.211 114.32 207.442 113.494 205.349C113.494 205.349 112.668 209.746 109.364 210.234C107.161 210.583 111.636 208.908 111.085 204.72C111.085 204.72 109.915 207.861 105.509 207.093C102.067 206.535 107.712 207.024 108.813 203.743C109.846 200.393 108.538 198.788 108.056 198.299C107.505 197.811 104.614 195.368 102.549 196.484C100.483 197.601 99.6573 201.44 98.9689 200.602C98.2805 199.765 100.346 195.019 102.549 193.972C104.752 192.925 106.404 195.228 107.23 194.809C108.125 194.39 109.502 191.948 109.502 191.948L111.911 194.46Z" fill="#FFC163"/>
<path d="M107.301 187.62C107.301 187.62 97.3188 216.725 88.9202 225.171C88.9202 225.171 96.6304 198.09 98.2826 193.483C98.2826 193.483 85.3404 218.819 75.2896 225.869C75.2896 225.869 77.7679 216.865 82.7245 208.629C82.7245 208.629 67.9925 223.705 62.6917 226.287C62.6917 226.287 70.4707 212.538 76.4599 206.186C76.4599 206.186 68.2678 214.282 63.1047 216.935C63.1047 216.935 68.4055 205.628 72.2606 202.766C72.2606 202.766 43.3473 225.589 28.8218 243.248C19.0464 255.113 19.3906 256.09 17.3253 258.324C15.2601 260.557 11.8181 261.535 11.8181 261.535C11.8181 261.535 19.3217 247.017 32.1262 233.616C44.8618 220.215 70.0577 194.46 70.0577 194.46L84.3767 184.549L96.1485 180.013L107.301 187.62Z" fill="#FFC163"/>
<path d="M109.849 182.595C110.055 182.246 110.331 181.967 110.606 181.688C112.258 180.152 115.081 179.524 117.077 180.71C119.968 182.455 119.418 186.294 118.178 188.877C116.733 191.878 114.323 194.46 111.294 195.856C111.294 195.856 107.921 195.228 107.508 193.902C107.026 192.436 107.439 190.552 107.715 189.086C108.059 186.922 108.541 184.41 109.849 182.595Z" fill="#FFC163"/>
<path d="M82.5865 184.061C82.5865 184.061 26.0679 211.63 16.1547 249.39C16.1547 249.39 20.9048 244.504 26.5498 235.57C33.4339 224.752 54.7058 200.882 83.3437 189.156L82.5865 184.061Z" fill="#FFC163"/>
<path d="M70.7484 66.1748C70.7484 66.1748 44.1068 47.5392 33.0923 39.1636C22.0777 30.788 7.4145 16.9684 7.4145 16.9684C7.4145 16.9684 20.3566 48.1673 35.5017 55.7053C35.5017 55.7053 6.79493 44.1889 -1.46601 37.4187C-1.46601 37.4187 17.0523 56.6825 29.9944 64.2205C29.9944 64.2205 5.0739 57.5898 -2.84284 51.029C-2.84284 51.029 11.7515 68.6176 23.9364 73.0846C23.9364 73.0846 8.03407 70.0136 1.70068 63.5225C1.70068 63.5225 19.5305 83.7634 33.0234 87.7418C33.0234 87.7418 16.2262 86.3459 9.61742 81.8091C9.61742 81.8091 22.7661 93.4651 33.5742 96.1872C33.5742 96.1872 21.4581 95.4892 16.7769 92.488C16.7769 92.488 27.8603 101.771 39.6322 104.493C39.6322 104.493 26.5524 106.866 23.7987 105.889C23.7987 105.889 32.2662 114.195 52.0236 112.589C52.0236 112.589 36.8097 116.917 33.9184 119.848C33.9184 119.848 41.3532 124.734 53.8135 121.942C53.8135 121.942 42.5235 125.432 39.5633 128.852C39.5633 128.852 46.4475 133.109 56.0852 129.899C56.0852 129.899 48.7881 136.25 47.962 140.508C47.962 140.508 49.8207 142.322 55.2591 140.717C55.2591 140.717 51.6794 144.905 51.6105 147.138C51.6105 147.138 54.7772 148.465 58.1505 147.627C58.1505 147.627 54.8461 150.558 54.5707 153.769C54.5707 153.769 60.8353 156.491 64.8281 155.584C64.8281 155.584 58.9766 161.726 58.4258 166.472C58.4258 166.472 61.2483 167.868 65.9984 165.983C65.9984 165.983 64.3462 167.659 63.7954 172.265C63.7954 172.265 70.3354 173.103 79.2847 167.24C79.2847 167.24 69.3716 176.802 68.752 182.037C68.752 182.037 78.1833 179.733 84.4478 173.591C84.4478 173.591 77.839 189.156 74.9477 192.297C74.9477 192.297 83.6905 193.204 88.3717 188.667C88.3717 188.667 87.3391 190.97 87.3391 194.111C87.3391 194.111 92.7776 195.019 98.0784 190.552C98.0784 190.552 99.3863 194.809 96.7704 197.811C96.7704 197.811 105.513 197.601 109.781 190.063C114.05 182.525 116.184 167.24 116.184 167.24L97.1834 115.939L70.7484 66.1748Z" fill="#FFC163"/>
<path d="M86.51 76.5046C86.51 76.5046 75.8396 64.9185 61.383 64.2903C61.383 64.2903 62.5533 69.176 65.3069 70.7813C65.3069 70.7813 61.8648 70.0834 57.1836 71.4793C57.1836 71.4793 58.8358 74.8993 61.383 75.9463C61.383 75.9463 57.7344 77.063 56.4952 78.3891C56.4952 78.3891 58.5605 81.8789 61.383 82.2977C61.383 82.2977 57.3902 84.4614 56.7018 86.4157C56.7018 86.4157 59.18 88.719 62.5533 88.9284C62.5533 88.9284 61.796 91.8598 61.7272 94.2329C61.7272 94.2329 64.0678 95.3496 65.6511 95.1402C65.6511 95.1402 64.4808 99.5374 64.6185 100.794C64.6185 100.794 68.5424 101.561 71.7091 100.794C71.7091 100.794 69.7127 102.888 69.2997 105.051C69.2997 105.051 70.0569 106.796 78.1802 105.959C78.1802 105.959 74.6693 108.262 74.3939 110.286C74.3939 110.286 76.2526 111.612 80.0389 110.565C80.0389 110.565 77.4918 112.868 77.0788 114.753C77.0788 114.753 81.1404 116.428 83.7563 115.242C83.7563 115.242 81.9665 117.056 81.8288 119.15C81.8288 119.15 83.7563 120.058 86.5788 119.08C86.5788 119.08 84.9266 121.523 84.1694 123.827C84.1694 123.827 89.8832 124.455 91.4666 123.617C91.4666 123.617 88.2999 126.479 88.0245 128.154C88.0245 128.154 92.4303 128.852 94.4956 128.154C94.4956 128.154 89.6767 132.272 88.6441 137.297C88.6441 137.297 90.9847 137.925 94.3579 136.46C94.3579 136.46 90.5716 139.949 90.9847 144.835C90.9847 144.835 93.5318 145.882 96.2854 144.067C96.2854 144.067 92.2927 148.883 93.8072 154.397C93.8072 154.397 96.2854 154.397 97.8688 151.745C97.8688 151.745 95.5282 158.027 96.7673 161.028C96.7673 161.028 99.934 159.841 101.104 157.748C101.104 157.748 99.1079 162.145 100.141 166.751C100.141 166.751 104.615 164.727 106.061 160.4C106.061 160.4 105.579 166.402 107.369 169.683C107.369 169.683 110.123 167.31 111.086 164.518C111.086 164.518 110.329 170.311 112.601 174.987C112.601 174.987 114.322 173.661 115.079 171.497C115.079 171.497 116.181 175.685 117.833 177.29C117.833 177.29 119.416 175.127 119.691 173.591C119.691 173.591 121.206 175.685 122.17 176.034C122.17 176.034 125.405 171.916 125.474 169.822C125.474 169.822 126.989 172.126 128.021 172.475C128.021 172.475 131.326 169.683 130.981 165.495C130.981 165.495 132.221 166.751 134.217 166.472C134.217 166.472 138.829 154.537 138.141 149.651C137.315 144.416 86.51 76.5046 86.51 76.5046Z" fill="#FFC163"/>
<path d="M143.236 144.556C141.171 149.511 135.733 151.745 130.638 152.792C129.812 153.001 121.689 154.886 121.551 153.629C121.551 153.629 121.276 151.675 124.098 149.302C124.098 149.302 119.761 150.838 115.493 149.093C115.493 149.093 116.388 146.51 119.28 145.463C119.28 145.463 113.497 146.161 110.812 144.696C110.812 144.696 113.635 141.345 117.077 139.949C117.077 139.949 111.156 141.276 107.645 138.693C107.645 138.693 110.537 135.762 115.011 134.645C115.011 134.645 110.95 132.411 109.573 131.015C109.573 131.015 110.468 129.829 112.808 129.969C112.808 129.969 109.091 128.363 107.921 126.967C107.921 126.967 108.747 125.292 111.019 124.943C111.019 124.943 108.127 123.338 107.026 122.221C107.026 122.221 108.058 120.406 109.642 120.197C109.642 120.197 105.305 118.452 104.548 117.126C104.548 117.126 104.961 116.009 107.026 115.66C107.026 115.66 101.105 114.753 99.3845 113.008C99.3845 113.008 99.3845 111.263 100.486 109.379C100.486 109.379 99.591 100.724 93.4641 93.3255C87.3372 85.9271 84.5148 83.3446 84.5148 83.3446C84.5148 83.3446 85.9604 82.0883 88.301 81.9487C88.301 81.9487 85.6851 77.4817 83.4821 76.0858C83.4821 76.0858 109.435 77.1328 118.798 98.5602C128.298 120.057 129.675 127.037 129.675 127.107C129.606 126.758 136.696 128.503 137.178 128.782C142.066 131.225 144.82 137.088 143.856 142.462C143.718 143.16 143.512 143.928 143.236 144.556Z" fill="#FFC163"/>
<path d="M174.488 134.715C174.488 134.715 170.082 125.083 161.615 126.339C155.213 127.246 153.836 139.461 156.452 144.556L174.488 134.715Z" fill="#FFC163"/>
<path d="M167.607 146.79C167.607 146.79 157.9 148.534 156.455 144.486C154.596 139.252 169.19 135.483 169.19 135.483C169.19 135.483 171.049 143.998 167.607 146.79Z" fill="#FFC163"/>
<path d="M174.489 134.715C174.489 134.715 181.924 150.279 163.681 155.165C163.681 155.165 168.018 150.489 167.605 146.859C167.605 146.859 165.058 141.415 166.503 138.205C168.362 133.947 174.489 134.715 174.489 134.715Z" fill="#FFC163"/>
<path d="M160.102 130.387C160.308 131.783 161.685 132.76 163.131 132.551C164.576 132.342 165.678 131.015 165.471 129.62C165.265 128.224 163.888 127.246 162.442 127.526C160.996 127.805 159.895 128.991 160.102 130.387Z" fill="#FFC163"/>
<path d="M160.996 130.248C161.134 131.155 161.96 131.783 162.923 131.644C163.818 131.504 164.507 130.667 164.369 129.759C164.231 128.852 163.405 128.224 162.442 128.363C161.478 128.503 160.858 129.34 160.996 130.248Z" fill="#FFC163"/>
<path d="M161.479 129.62C161.548 129.899 161.823 130.178 162.099 130.108C162.443 130.038 162.649 129.759 162.581 129.48C162.512 129.201 162.236 128.922 161.961 128.991C161.686 128.991 161.479 129.271 161.479 129.62Z" fill="#FFC163"/>
<path d="M162.852 130.597C162.852 130.806 163.059 130.876 163.265 130.876C163.472 130.876 163.61 130.667 163.541 130.527C163.541 130.318 163.334 130.248 163.128 130.248C162.99 130.248 162.852 130.387 162.852 130.597Z" fill="#FFC163"/>
</g>
</svg>




