<?xml version="1.0" encoding="utf-8"?>
<!DOCTYPE svg PUBLIC "-//W3C//DTD SVG 1.1//EN" "http://www.w3.org/Graphics/SVG/1.1/DTD/svg11.dtd">
<!--Scalable Vector Graphic-->
	<svg width="89" height="139" viewBox="0 0 89 139" fill="none" xmlns="http://www.w3.org/2000/svg">
<g opacity="0.14">
<g opacity="0.1">
<path opacity="0.1" d="M44.5 138.935C19.9233 138.935 0 135.527 0 131.322C0 127.117 19.9233 123.709 44.5 123.709C69.0767 123.709 89 127.117 89 131.322C89 135.527 69.0767 138.935 44.5 138.935Z" fill="#7761DF"/>
</g>
<path d="M50.8124 120.134C50.8124 120.134 50.8124 126.953 51.2773 128.608C51.7423 130.263 55.0632 134.301 55.5281 133.639C55.993 132.977 55.3288 131.322 56.2587 130.991C57.1885 130.66 58.9154 132.911 59.5132 132.117C60.1109 131.388 58.9154 130.13 59.5132 129.336C60.1109 128.608 61.6385 129.667 61.7714 128.806C61.9042 127.946 55.5945 126.291 55.2624 125.298C54.9303 124.305 55.2624 118.942 55.2624 118.942L50.8124 120.134Z" fill="#7761DF"/>
<path d="M30.0194 120.134C30.0194 120.134 30.0194 126.953 30.4844 128.608C30.9493 130.263 34.2702 134.301 34.7351 133.639C35.2 132.977 34.5359 131.322 35.4657 130.991C36.3956 130.66 38.1224 132.911 38.7202 132.117C39.318 131.388 38.1224 130.13 38.7202 129.336C39.318 128.608 40.8456 129.667 40.9784 128.806C41.1112 127.946 34.8015 126.291 34.4694 125.298C34.1374 124.305 34.4694 118.942 34.4694 118.942L30.0194 120.134Z" fill="#7761DF"/>
<path d="M17.7371 35.2616C17.7371 35.2616 20.3274 20.2997 34.7401 15.4669C49.1528 10.7003 65.2259 14.8049 71.8013 24.1395C78.3102 33.4741 78.3102 42.8088 78.3102 42.8088C78.3102 42.8088 85.8819 48.9656 87.011 60.485C88.7378 78.757 71.5356 81.8023 71.5356 81.8023C71.5356 81.8023 82.2289 93.3216 76.7826 107.026C71.3364 120.73 56.0602 124.834 40.8505 123.51C25.5744 122.186 12.7558 114.838 6.84457 102.656C0.933372 90.4749 0.534859 77.6977 4.25426 77.0357C7.97367 76.3737 8.63785 81.8023 14.4826 81.1403C20.3938 80.4782 21.4565 77.2343 21.4565 77.2343C21.4565 77.2343 7.3759 73.2621 6.44605 60.7498C5.64904 50.7531 8.77068 40.9551 17.7371 35.2616Z" fill="#7761DF"/>
<path d="M52.0721 53.4011C52.0721 53.4011 51.2086 50.9516 48.7512 51.084C46.2937 51.2164 46.4265 52.5405 44.7661 53.1363C43.1056 53.7322 41.578 51.9447 40.9138 53.0039C39.984 54.5266 42.2422 56.5127 41.6444 57.5057C41.0467 58.4988 39.8512 58.4326 39.9176 59.889C39.984 61.3455 45.231 64.3908 49.4818 64.3908C53.7325 64.3908 57.1198 61.5441 57.2527 60.0876C57.3191 58.6312 54.7288 57.8367 55.0609 56.5127C55.3929 55.1886 57.3191 54.2618 56.4556 53.2025C55.5922 52.1433 53.7989 54.2618 52.0721 53.4011Z" fill="#7761DF"/>
<path d="M55.3267 45.3245C55.3267 47.5754 57.1864 49.4291 59.4446 49.4291C61.7028 49.4291 63.5625 47.5754 63.5625 45.3245C63.5625 43.0736 61.7028 41.2199 59.4446 41.2199C57.12 41.2199 55.3267 43.0736 55.3267 45.3245Z" fill="#7761DF"/>
<path d="M59.3081 43.8681C59.3081 44.7287 59.9722 45.3907 60.8357 45.3907C61.6991 45.3907 62.3633 44.7287 62.3633 43.8681C62.3633 43.0074 61.6991 42.3454 60.8357 42.3454C59.9722 42.3454 59.3081 43.0074 59.3081 43.8681Z" fill="#7761DF"/>
<path d="M33.8736 45.3245C33.8736 47.5754 35.7333 49.4291 37.9915 49.4291C40.2497 49.4291 42.1094 47.5754 42.1094 45.3245C42.1094 43.0736 40.2497 41.2199 37.9915 41.2199C35.6668 41.2199 33.8736 43.0736 33.8736 45.3245Z" fill="#7761DF"/>
<path d="M37.8588 43.8681C37.8588 44.7287 38.523 45.3907 39.3865 45.3907C40.2499 45.3907 40.9141 44.7287 40.9141 43.8681C40.9141 43.0074 40.2499 42.3454 39.3865 42.3454C38.523 42.3454 37.8588 43.0074 37.8588 43.8681Z" fill="#7761DF"/>
<g opacity="0.1">
<path opacity="0.1" d="M62.3633 81.4713C62.3633 81.4713 54.1939 82.0009 46.9543 81.4713C39.7812 80.9416 32.0103 79.4852 32.0103 79.4852C32.0103 79.4852 38.5857 82.8615 47.1536 84.1856C55.8543 85.4434 62.3633 81.4713 62.3633 81.4713Z" fill="#7761DF"/>
</g>
<g opacity="0.1">
<path opacity="0.1" d="M21.3867 77.2342C21.3867 77.2342 7.30612 73.262 6.37627 60.7496C6.1106 57.3071 6.30985 53.9307 7.04045 50.753C7.04045 53.7321 7.50538 57.9029 9.16582 62.2723C12.4203 70.4815 21.3867 77.2342 21.3867 77.2342Z" fill="#7761DF"/>
</g>
<g opacity="0.1">
<path opacity="0.1" d="M87.1406 63.3316C86.9414 79.0217 71.5324 81.736 71.5324 81.736C71.5324 81.736 82.1593 75.2481 87.1406 63.3316Z" fill="#7761DF"/>
</g>
<path d="M37.1253 88.8198C37.1253 88.8198 42.4387 98.2868 33.8708 103.318C25.3693 108.283 13.5469 100.273 11.6208 97.2276C9.62827 94.1822 10.8902 92.9906 10.8902 92.9906C10.8902 92.9906 9.49544 91.7989 9.89394 89.4156C10.226 87.6943 11.9529 87.5619 11.9529 87.5619C11.9529 87.5619 12.0193 84.7814 13.879 85.311C16.5357 86.0393 17.1335 87.2971 22.7126 87.1647C25.3029 87.0985 33.273 82.8615 37.1253 88.8198Z" fill="#7761DF"/>
<path d="M54.5282 16.2614C54.5282 16.2614 55.5245 11.1637 55.3252 5.93369C55.0595 0.703651 52.9342 -0.355597 51.6058 1.56429C50.2775 3.55038 49.9454 8.4494 49.9454 8.4494C49.9454 8.4494 47.5543 2.42493 44.4327 2.42493C41.311 2.42493 45.4289 9.70726 45.4289 9.70726C45.4289 9.70726 42.7058 6.1985 39.7834 8.4494C36.861 10.7003 47.5543 15.6655 47.5543 15.6655L54.5282 16.2614Z" fill="#7761DF"/>
<g opacity="0.1">
<path opacity="0.1" d="M2.19017 87.8268C5.2454 94.9767 13.0163 106.959 32.0782 114.573C52.2029 122.65 68.1432 115.897 75.9805 108.681C71.9954 116.89 64.1581 121.259 55.1252 122.914C55.1252 123.312 55.1252 123.643 55.1252 124.04C54.0626 124.04 52.9999 124.305 52.4685 125.231C51.4058 127.218 53.1991 129.733 53.9961 131.124C54.7932 132.514 55.4573 133.705 55.4573 133.705C54.9924 134.367 51.6715 130.329 51.2066 128.674C51.0073 127.813 50.8745 125.562 50.8081 123.576C47.5536 123.841 44.1663 123.841 40.779 123.576C38.5872 123.378 36.3954 123.047 34.3364 122.583C34.3364 123.113 34.3364 123.643 34.3364 124.106C33.473 123.709 32.3439 123.378 31.8126 123.775C30.8827 124.503 31.2812 126.423 31.879 128.211C32.4767 129.932 34.6685 133.705 34.6685 133.705C34.2036 134.367 30.8827 130.329 30.4178 128.674C30.0857 127.482 30.0193 123.576 30.0193 121.524C19.6581 118.346 11.223 111.925 6.83942 102.722C4.31554 97.4924 2.78793 92.1962 2.19017 87.8268Z" fill="#7761DF"/>
</g>
<g opacity="0.1">
<path opacity="0.1" d="M40.8489 52.9378C40.8489 52.9378 40.8489 53.5998 41.181 54.2619C41.5131 54.9239 42.5093 55.8507 42.5093 57.0424C42.5093 58.234 41.3802 58.6975 41.4466 59.5581C41.5131 60.4187 43.8377 62.2062 47.0922 63.0007C50.3466 63.7951 56.125 61.809 56.125 61.809C56.125 61.809 53.4019 65.715 48.2877 66.046C41.1146 66.5756 38.5243 62.2062 38.5907 60.6836C38.6571 59.1609 40.3175 58.3002 40.1183 56.9762C39.9854 55.7183 39.5205 53.5336 40.8489 52.9378Z" fill="#7761DF"/>
</g>
<g opacity="0.1">
<path opacity="0.1" d="M14.8787 97.7573C19.3951 100.736 26.5018 101.994 30.4869 101.332C33.0772 100.935 36.3981 99.2137 38.3242 98.0883C37.7265 100.008 36.3981 101.862 33.8742 103.318C25.3727 108.284 13.5503 100.273 11.6242 97.2276C10.628 95.6388 10.4287 94.5795 10.4951 93.9175C11.1593 94.7781 12.4877 96.1684 14.8787 97.7573Z" fill="#7761DF"/>
</g>
<g opacity="0.2">
<path opacity="0.2" d="M55.3249 19.439C55.3249 19.439 55.7234 19.6376 56.3212 20.0349C56.9854 20.4321 57.8488 20.9617 58.9115 21.6237C59.4429 21.9547 59.9742 22.352 60.572 22.7492C61.1697 23.1464 61.7675 23.6098 62.3652 24.007C62.963 24.4705 63.5608 25.0001 64.2249 25.4635C64.8227 25.9931 65.4869 26.5227 66.0182 27.0524C66.616 27.6482 67.2137 28.1778 67.7451 28.7736C68.0108 29.1047 68.2764 29.3695 68.5421 29.6343C68.8078 29.8991 69.007 30.2301 69.2727 30.5611C69.5384 30.8259 69.7376 31.157 69.9369 31.4218C70.1361 31.6866 70.3354 32.0176 70.5346 32.2824C70.9332 32.8782 71.3317 33.4079 71.5973 33.9375C71.9294 34.4671 72.1951 34.9967 72.3943 35.3939C72.5936 35.8574 72.7929 36.2546 72.9257 36.5856C73.2578 37.2476 73.457 37.6448 73.457 37.6448C73.457 37.6448 73.3906 37.2476 73.2578 36.5194C73.1914 36.1222 73.1249 35.725 72.9921 35.1953C72.8593 34.7319 72.66 34.1361 72.4608 33.5403C72.2615 32.9444 71.9958 32.2824 71.5973 31.6204C71.3981 31.2894 71.2652 30.9583 71.066 30.6273C70.8667 30.2963 70.6011 29.9653 70.4018 29.6343C70.2026 29.3033 69.9369 28.9723 69.7376 28.6412C69.472 28.3102 69.2063 27.9792 68.9406 27.6482C68.4093 26.9862 67.8115 26.3903 67.1473 25.7945C66.5496 25.1987 65.819 24.6691 65.2212 24.1394C64.557 23.6098 63.8928 23.1464 63.1623 22.7492C62.4981 22.352 61.8339 21.9547 61.1697 21.6237C60.5055 21.2927 59.9078 21.0279 59.31 20.7631C57.0518 19.7038 55.3249 19.439 55.3249 19.439Z" fill="#7761DF"/>
</g>
<g opacity="0.2">
<path opacity="0.2" d="M54.1298 57.903C54.1298 57.903 54.2626 58.1678 54.4619 58.565C54.5283 58.7637 54.6611 58.9623 54.794 59.1609C54.9268 59.3595 54.9932 59.5581 55.0596 59.7567C55.126 59.8229 55.126 59.9553 55.126 60.0215C55.126 60.0877 55.126 60.2201 55.126 60.2863C55.126 60.4187 54.9932 60.6173 54.8604 60.7497C54.7275 60.8821 54.5947 61.0146 54.5283 61.147C54.4619 61.2132 54.3954 61.2794 54.3954 61.2794C54.3954 61.2794 54.4619 61.2794 54.5947 61.2794C54.7275 61.2794 54.9268 61.2794 55.126 61.147C55.2589 61.0808 55.3917 61.0808 55.4581 60.9484C55.591 60.8821 55.7238 60.7497 55.7902 60.5511C55.9895 60.2201 55.9895 59.8229 55.8566 59.4919C55.6574 58.8299 55.126 58.4326 54.794 58.1678C54.4619 57.9692 54.1298 57.903 54.1298 57.903Z" fill="#7761DF"/>
</g>
<g opacity="0.2">
<path opacity="0.2" d="M65.2198 49.4291C65.2198 49.4291 65.4855 49.3629 65.9504 49.2305C66.4153 49.0981 67.0795 48.9656 67.8101 48.8332C68.2086 48.767 68.6071 48.7008 69.072 48.6346C69.537 48.5684 70.0019 48.5684 70.4668 48.5022C70.9318 48.5022 71.4631 48.436 71.928 48.436C72.4594 48.436 72.9243 48.436 73.4556 48.5022C73.987 48.5022 74.4519 48.5684 74.9168 48.6346C75.3818 48.7008 75.9131 48.8332 76.378 48.8994C76.8429 48.9657 77.3079 49.1643 77.7064 49.2967C78.1049 49.4291 78.5034 49.5615 78.9019 49.6939C79.234 49.8263 79.6325 49.9587 79.8982 50.0911C80.1638 50.2235 80.4295 50.3559 80.6952 50.4221C81.1601 50.6207 81.4258 50.6869 81.4258 50.6869C81.4258 50.6869 81.2265 50.4883 80.9609 50.0911C80.828 49.8925 80.6288 49.6939 80.3631 49.4291C80.0974 49.1643 79.8318 48.9656 79.4997 48.7008C79.1676 48.436 78.7691 48.1712 78.3706 47.9726C77.9056 47.774 77.5071 47.443 76.9758 47.3106C76.4444 47.1782 75.9795 46.9134 75.3818 46.8472C74.8504 46.7147 74.2526 46.6485 73.7213 46.5823C73.1235 46.5161 72.5922 46.5823 71.9944 46.5823C71.4631 46.5823 70.9318 46.7147 70.4004 46.7809C69.8691 46.9134 69.4041 47.0458 68.9392 47.1782C68.4743 47.3106 68.0758 47.5092 67.6773 47.7078C67.2788 47.8402 66.9467 48.105 66.681 48.2374C66.4153 48.436 66.1497 48.5684 65.9504 48.7008C65.4191 49.2305 65.2198 49.4291 65.2198 49.4291Z" fill="#7761DF"/>
</g>
<g opacity="0.2">
<path opacity="0.2" d="M16.9391 88.7536C16.9391 88.7536 17.6697 89.2833 18.9317 89.6805C19.2638 89.8129 19.5958 89.8791 19.9279 89.9453C20.26 90.0115 20.6585 90.0777 21.057 90.1439C21.8541 90.2763 22.7175 90.2763 23.5809 90.2101C24.0458 90.2101 24.4444 90.1439 24.8429 90.0777C25.2414 90.0115 25.6399 89.8791 26.0384 89.8129C26.4369 89.7467 26.769 89.5481 27.1675 89.4157C27.4996 89.2833 27.8317 89.1509 28.0973 89.0185C28.6951 88.7536 29.16 88.4226 29.4257 88.224C29.7578 88.0254 29.8906 87.893 29.8906 87.893C29.8906 87.893 29.6914 87.893 29.2929 87.9592C29.0936 87.9592 28.8944 88.0254 28.6287 88.0254C28.363 88.0916 28.0973 88.0916 27.7653 88.0916C27.1675 88.1578 26.4369 88.224 25.7063 88.3564C25.3078 88.4226 24.9757 88.4226 24.5772 88.4888C24.1787 88.4888 23.7802 88.555 23.3817 88.555C22.5847 88.6212 21.7876 88.6874 21.057 88.6874C20.3264 88.6874 19.5958 88.7536 18.9981 88.7536C17.8026 88.6874 16.9391 88.7536 16.9391 88.7536Z" fill="#7761DF"/>
</g>
<g opacity="0.2">
<path opacity="0.2" d="M70.0028 86.7675C70.0028 86.7675 70.6005 87.8267 71.464 89.3494C71.6632 89.7466 71.8625 90.1438 72.1281 90.6072C72.3938 91.0707 72.5931 91.5341 72.7923 91.9975C73.058 92.4609 73.1908 92.9905 73.4565 93.5202C73.6558 94.0498 73.855 94.5794 74.0543 95.109C74.1871 95.6387 74.3864 96.1683 74.5192 96.6979C74.5856 96.9627 74.652 97.2275 74.7184 97.4923C74.7849 97.7571 74.7849 98.022 74.8513 98.2868C74.9177 98.5516 74.9177 98.8164 74.9841 99.0812C74.9841 99.346 75.0505 99.6108 75.0505 99.8094C75.0505 100.273 75.117 100.736 75.117 101.2C75.117 101.597 75.117 102.06 75.117 102.391C75.0505 102.722 75.0505 103.053 75.0505 103.318C74.9841 103.848 74.9841 104.179 74.9841 104.179C74.9841 104.179 75.117 103.914 75.3826 103.451C75.5155 103.186 75.6483 102.921 75.7811 102.59C75.914 102.259 76.0468 101.862 76.1132 101.398C76.2461 100.935 76.3125 100.471 76.3789 99.9418C76.3789 99.677 76.4453 99.4122 76.4453 99.1474C76.4453 98.8826 76.4453 98.5516 76.4453 98.2868C76.4453 97.6909 76.3789 97.0951 76.2461 96.4993C76.1796 95.9035 75.9804 95.3076 75.7811 94.7118C75.5819 94.116 75.3162 93.5202 75.117 92.9905C74.8513 92.4609 74.5856 91.9313 74.2535 91.4017C73.9878 90.872 73.6558 90.4748 73.3237 90.0114C72.9916 89.548 72.6595 89.217 72.3938 88.8859C71.0655 87.4295 70.0028 86.7675 70.0028 86.7675Z" fill="#7761DF"/>
</g>
</g>
</svg>
