<?xml version="1.0" encoding="utf-8"?>
<!DOCTYPE svg PUBLIC "-//W3C//DTD SVG 1.1//EN" "http://www.w3.org/Graphics/SVG/1.1/DTD/svg11.dtd">
<!--Scalable Vector Graphic-->
	<svg width="113" height="225" viewBox="0 0 113 225" fill="none" xmlns="http://www.w3.org/2000/svg">
<g opacity="0.3">
<path d="M65.5423 118.345C69.7445 122.424 67.609 125.308 68.7801 129.387C69.9512 133.395 71.4668 131.426 73.0512 128.051C74.6357 124.323 73.4645 118.134 70.1579 115.954C68.0223 114.688 63.8201 113.704 65.2667 117.783" fill="#51DBEE"/>
<path d="M57.3481 119.541C56.2459 134.591 58.3814 149.852 57.5548 164.902C56.8659 174.044 58.037 184.663 55.7636 193.735C52.7325 204.144 47.2903 189.867 45.3614 185.999C43.4325 181.85 43.157 176.716 43.157 172.426C42.6058 162.44 41.7103 152.383 41.5036 142.397C41.0214 136.138 41.8481 128.613 46.8081 123.479C48.8747 121.44 54.0414 117.009 56.8659 118.275" fill="#51DBEE"/>
<path d="M38.5431 144.999C38.8875 138.248 38.7497 132.903 41.1608 126.503C41.9186 124.886 41.2297 121.369 44.3986 122.002C47.912 122.354 48.2564 135.646 48.3942 137.756L48.9453 183.116C48.0498 191.204 49.3586 199.432 48.7386 207.519C48.4631 210.965 48.9453 221.936 43.9853 224.046C41.2297 221.585 41.2986 216.24 40.8853 213.216C39.4386 206.675 39.1631 196.9 38.3364 190.289C36.6831 174.677 37.7164 160.33 38.5431 144.999Z" fill="#51DBEE"/>
<path d="M27.8655 140.217C28.1411 133.466 26.0744 128.824 28.4166 122.424C29.1744 120.807 28.4166 117.291 31.6544 117.923C35.1678 118.275 35.5811 131.567 35.7878 133.677L36.6833 179.037C35.7878 187.125 37.2344 195.353 36.6833 203.44C36.4766 206.886 37.0278 217.857 31.9989 219.967C29.2433 217.506 29.3122 212.161 28.83 209.137C27.3144 202.597 27.59 193.384 27.6588 186.773C27.7966 169.613 27.1077 156.181 27.8655 140.217Z" fill="#51DBEE"/>
<path d="M43.7109 119.682C42.7465 132.692 44.0554 145.702 43.2976 158.713C42.7465 166.589 43.4354 175.661 41.7132 183.538C39.4398 192.54 35.8576 180.233 34.5487 176.927C33.2398 173.411 33.102 168.98 33.1709 165.253C32.8954 156.673 32.4131 148.023 32.3442 139.443C32.0687 134.099 32.7576 127.628 36.2709 123.128C37.7865 121.299 41.4376 117.572 43.3665 118.556" fill="#51DBEE"/>
<path d="M111.699 19.3258C112.457 10.1131 97.5077 1.74421 90.7565 0.337685C79.1832 -1.77211 68.2987 6.38576 60.4453 14.192C61.4098 14.5436 62.0298 15.1766 62.7187 15.1766C61.0653 17.4973 59.4809 20.662 58.5853 23.0531C57.3453 26.3585 57.2076 30.789 56.932 36.2042L50.4564 40.916C46.8742 43.6588 41.3631 52.8012 39.3653 56.4582C36.4031 62.9986 33.7164 69.8905 31.7186 76.7825C29.7208 83.0416 28.0675 89.5819 26.0697 95.841C23.7275 103.366 24.9675 110.961 24.8297 119.541C24.7608 126.152 20.8341 134.31 29.5142 135.364C36.2653 136.419 45.4275 133.536 51.8342 130.653C60.3765 126.855 68.3676 119.963 75.532 113.774C85.9343 104.632 91.8588 91.9027 93.9254 78.0484C94.9588 69.1873 97.9899 57.6537 94.5454 49.4255C92.341 44.784 86.2099 41.127 85.3143 36.1338C84.0743 30.5077 87.9321 30.8594 91.5143 28.3276C95.441 26.0772 97.3699 21.5059 101.297 19.1852C103.639 18.2709 109.632 19.1148 111.354 18.9742" fill="#51DBEE"/>
<path d="M61.0004 57.3021C53.1471 70.7344 40.747 82.1273 29.0359 91.551C24.5581 95.1377 -1.55083 116.939 1.96251 123.198C7.12919 124.886 25.5914 112.579 27.2448 111.594C17.4625 119.4 7.40475 126.503 11.2625 131.496C13.1914 133.817 31.9981 121.51 35.9248 119.26C32.687 123.479 16.4292 130.934 24.4892 133.958C31.5848 136.982 52.596 122.987 56.936 118.838C71.9538 104.139 84.9738 91.1291 87.1094 68.7653" fill="#51DBEE"/>
<path d="M0.101456 120.737C0.790344 117.009 3.33923 113.493 5.95702 111.031C12.9837 104.35 19.2526 99.1463 26.8993 92.184C38.7482 81.3537 52.2505 71.0861 60.586 57.0911C61.6883 55.2626 63.4794 56.3878 62.3771 58.2163C50.1838 78.6813 30.2749 91.0588 13.8793 107.375C10.7793 110.469 8.16146 112.368 4.7859 116.165C3.82145 117.291 2.09923 120.455 2.44367 121.721C2.65034 122.354 2.78812 122.143 3.27034 122.635C3.68368 122.776 4.71701 122.424 5.33701 122.213C12.6393 119.893 19.5282 115.603 26.2104 111.594C27.726 110.68 28.5526 112.086 27.0371 113.282C21.9393 117.361 17.1859 120.948 13.2593 126.292C12.6393 127.066 12.0881 128.05 11.9504 129.105C11.8815 129.527 11.9504 130.02 12.2259 130.371C12.2948 130.371 12.2948 130.371 12.3637 130.371C14.1548 131.075 16.0148 130.512 17.5993 129.809C24.0748 126.785 29.9993 122.987 36.1993 119.33C37.8526 118.345 38.1971 119.541 36.7504 120.526C33.7193 122.706 31.2393 124.815 28.4837 126.785C26.9682 127.91 25.1771 129.176 23.9371 130.582C22.6282 131.989 24.0059 133.606 25.5215 133.817C29.1726 134.31 34.2704 131.848 37.5082 130.301C41.7793 128.261 46.1882 126.152 50.1838 123.55C58.1749 118.134 64.2372 111.031 70.5061 103.647C78.5661 93.9422 85.9372 81.4944 87.315 68.8356C87.5216 66.7258 88.8994 66.7258 88.6239 68.8356C87.1772 82.8306 81.115 94.7158 72.1594 105.335C64.7194 114.126 56.5216 122.143 46.8082 128.121C42.2615 130.934 37.5082 133.466 32.4104 135.083C29.1726 136.138 24.7637 136.982 21.8704 134.45C20.3548 133.114 20.9748 131.637 21.6637 130.09C19.0459 132.34 16.1526 133.466 13.1904 133.325C9.19481 133.255 8.16146 129.738 9.26369 126.644C9.88369 125.026 12.5704 122.706 13.7415 121.44C11.6059 122.424 7.74813 124.112 5.54368 124.675C2.37479 125.519 -0.587433 124.675 0.101456 120.737ZM3.27034 122.002C3.27034 122.143 3.33923 122.073 3.27034 122.002V122.002Z" fill="#51DBEE"/>
<path d="M100.057 20.873C104.397 4.76821 82.1461 7.51094 80.0795 21.6466C77.6684 38.7359 99.3684 31.211 100.057 21.0136" fill="#51DBEE"/>
<path d="M97.5813 25.7256C93.0346 26.0069 86.2146 31.5627 90.8991 34.7274C92.208 35.6416 99.4413 37.2591 100.406 35.9932C102.679 33.3912 99.9924 26.5695 97.788 25.9366" fill="#51DBEE"/>
<path d="M88.7609 19.7478C88.7609 21.295 89.932 22.5608 91.4476 22.5608C92.9631 22.5608 94.2031 21.3653 94.2031 19.8181C94.2031 18.2709 93.032 17.0051 91.5165 17.0051C90.0698 16.9347 88.8298 18.2006 88.7609 19.7478Z" fill="#51DBEE"/>
<path d="M112.046 18.3413C107.499 17.9193 97.51 17.2161 97.1656 24.4597C97.1656 26.7805 100.334 30.4374 100.334 33.3911C100.334 36.6965 99.3011 40.0018 97.0278 42.2523C108.532 43.0259 114.526 28.2573 112.666 18.6929" fill="#51DBEE"/>
<path d="M104.398 23.5454C104.398 24.2487 104.949 24.8816 105.707 24.8816C106.396 24.8816 107.016 24.319 107.016 23.5454C107.016 22.8422 106.465 22.2092 105.707 22.2092C105.018 22.2092 104.398 22.7718 104.398 23.5454Z" fill="#51DBEE"/>
<path d="M56.5885 63.6315C51.7662 60.4668 54.2462 53.6451 58.3107 50.4101C59.964 49.1442 61.2729 50.1991 59.6196 51.5353C57.4151 53.2935 54.1774 59.9745 57.2774 62.0843C59.0685 63.2095 58.3107 64.7567 56.5885 63.6315Z" fill="#51DBEE"/>
<path d="M19.6625 101.326C23.9336 106.39 36.5403 98.5134 40.0537 95.63C41.3626 94.5751 41.8448 95.2784 40.6737 96.8256C40.6048 96.9662 40.467 97.0366 40.3981 97.1772C37.987 99.0057 35.6448 100.623 33.7848 102.663C31.9248 104.632 28.067 109.625 28.6181 112.719C29.2381 116.306 36.1959 114.548 41.0181 111.735C44.807 109.555 47.6315 107.797 49.4915 106.32C51.1448 105.054 52.0404 106.109 50.3182 107.304C47.1493 109.555 44.3248 111.383 41.2937 113.704C39.4337 115.251 37.9181 117.431 38.1248 119.33C38.6759 123.831 45.7026 122.284 47.907 121.37C51.3515 119.893 57.4826 116.658 60.6515 114.829C62.4426 113.774 61.4782 115.462 59.756 116.658C54.4515 120.315 41.2937 130.02 36.0581 121.58C34.887 119.752 36.6092 117.08 37.2981 115.321C34.4737 116.728 30.4781 117.853 28.2737 115.884C25.1048 113.001 26.2759 108.359 29.1003 104.632C25.1736 106.249 21.247 106.46 18.4225 103.155C17.0447 101.537 18.3536 99.709 19.6625 101.326Z" fill="#51DBEE"/>
<path d="M36.1954 85.714C41.9132 86.4172 47.0799 82.057 51.2821 78.189C52.7288 76.8528 52.8666 78.4 51.7644 79.8066C50.1799 81.7757 48.1821 83.7448 46.5288 85.714C44.5999 87.9644 42.3955 92.8169 42.2577 95.9816C42.1199 99.2167 50.4555 94.5751 51.2821 94.0125C53.6244 92.4653 55.3466 90.4962 57.551 88.8083C57.551 88.8083 57.7577 88.5974 57.8955 88.527C59.4799 87.3315 60.0999 88.5974 59.0666 89.9336C56.9999 92.4653 54.8644 94.7861 53.0733 97.5288C51.9021 99.3573 48.9399 107.164 53.5555 105.968C59.4799 104.491 65.3355 98.4431 70.0889 94.9267C71.3977 93.9422 71.9489 94.5751 71.0533 95.9113C69.1244 98.7947 67.6777 101.537 65.8177 104.491C63.9577 107.375 61.4088 111.031 61.4088 114.618C61.4088 116.728 59.6866 116.798 59.6866 114.688C59.6866 111.242 62.0288 105.827 63.6822 102.944C63.82 102.663 63.9577 102.452 64.0955 102.17C63.9577 102.311 63.82 102.452 63.6133 102.522C60.9955 104.561 54.7955 109.766 51.351 108.078C47.011 105.968 48.1132 101.537 50.5933 97.3178C46.6666 99.7089 42.5332 100.904 40.4666 97.3882C38.7443 94.3641 40.7421 89.7929 43.0843 86.5579C41.0866 87.5425 37.4354 87.8941 35.0932 87.5425C33.1643 87.4018 34.1288 85.4327 36.1954 85.714Z" fill="#51DBEE"/>
<path d="M49.9788 74.1804C50.8744 81.635 62.5166 74.4617 64.7211 71.5783C65.7544 70.2421 66.5811 70.6641 66.0988 72.1409C65.3411 74.6024 64.3077 76.2902 63.3433 78.2593C62.3099 80.3691 59.141 84.5887 60.2433 87.1205C61.9655 91.1994 73.6077 80.5801 74.9855 78.822C76.0189 77.4857 76.9833 77.6967 76.3633 79.5955C75.33 82.7602 68.2344 97.4585 74.5722 98.0211C76.6389 98.232 76.5011 100.131 74.4344 99.9199C66.8566 99.287 69.2677 91.1291 71.8166 85.0107C67.9588 88.3864 62.6544 92.395 58.8655 90.2852C54.5944 87.8941 59.2099 81.424 62.1033 76.5715C56.5922 79.5252 49.221 82.057 48.2566 74.3211C47.981 72.2816 49.7033 72.1409 49.9788 74.1804Z" fill="#51DBEE"/>
</g>
</svg>

