<?xml version="1.0" encoding="utf-8"?>
<!DOCTYPE svg PUBLIC "-//W3C//DTD SVG 1.1//EN" "http://www.w3.org/Graphics/SVG/1.1/DTD/svg11.dtd">
<!--Scalable Vector Graphic-->
	<svg width="109" height="138" viewBox="0 0 109 138" fill="none" xmlns="http://www.w3.org/2000/svg">
<g opacity="0.15">
<path d="M62.5188 6.10421C42.912 3.63233 11.9263 38.7527 7.08308 77.1689C3.24505 107.612 19.0236 128.746 46.6184 132.225C74.2131 135.704 94.7435 119.147 98.5816 88.7044C103.425 50.2881 82.1256 8.57609 62.5188 6.10421Z" fill="#FF6376"/>
<path d="M65.6798 6.7967C70.1994 8.39739 72.3399 10.729 70.396 12.104C67.4076 14.1572 51.8943 12.5696 51.652 9.2254C51.5529 8.25565 52.8427 7.38736 55.5123 6.69303L56.4203 6.51295C57.7731 6.31533 59.5707 6.10015 60.9053 6.04749C56.4751 6.07805 55.7479 7.16455 56.3284 7.82681C57.0267 8.72483 67.6553 11.0221 67.5486 8.35774C67.5399 7.8412 66.0703 6.62502 62.5211 6.10394C63.5378 6.23211 64.6179 6.44192 65.6798 6.7967Z" fill="#FF6376"/>
<path d="M79.6672 17.5436C89.6066 29.9892 71.6036 31.1804 59.4398 29.9415C46.6952 28.6292 30.6851 23.9599 38.88 16.3041C40.0337 15.345 41.6053 13.9968 42.8225 13.1194L44.7573 11.8169C36.5548 17.7782 46.9641 21.815 58.4194 23.4065C69.8021 24.9888 83.439 23.3208 76.8736 14.5405C76.1753 13.6425 75.1866 12.7078 74.3883 12.0181C76.1753 13.6425 77.935 15.4843 79.6672 17.5436Z" fill="#FF6376"/>
<path d="M89.7031 33.9042C90.2831 35.1554 90.8539 36.4792 91.3613 37.7213C100.601 61.566 46.11 55.5061 29.4493 47.2203C18.8866 42.0596 21.8322 36.8346 22.9595 34.915C22.9595 34.915 22.9687 34.8425 23.0413 34.8516C24.5682 32.6878 26.6314 29.7816 28.2309 27.6269C18.5509 41.7964 58.2983 48.9428 78.4823 45.0812C88.6152 43.1187 91.5065 37.7397 87.2197 29.0257C88.1262 30.6127 88.951 32.263 89.7031 33.9042Z" fill="#FF6376"/>
<path d="M96.6428 54.3659C97.3574 57.475 97.9267 60.5658 98.3326 63.7833C101.405 91.4895 32.1919 82.2481 16.1059 70.5739C9.48283 65.7626 10.6121 61.4868 11.0675 59.6297C11.6408 58.0084 12.214 56.387 12.7873 54.7657L14.5066 50.4907C7.59903 71.3423 72.5762 76.736 88.3329 69.3707C98.5225 64.6173 97.0582 56.9218 96.3441 53.2237C96.4437 53.6044 96.5432 53.9851 96.6428 54.3659Z" fill="#FF6376"/>
<path d="M98.5821 88.7039C98.4085 90.0811 98.1622 91.4491 97.9251 92.7447C92.5391 117.912 16.5833 105.39 7.70768 90.9434C6.97333 89.7462 6.64728 88.8215 6.51265 86.9636C6.47658 86.6646 6.52228 86.3021 6.49535 85.9306C6.56992 83.5836 6.73587 80.5119 6.94653 78.2557C6.72794 101.055 83.3259 105.558 95.8476 91.0837C98.5282 87.9608 98.8851 84.5449 99.1963 81.4914C99.1126 83.9109 98.8836 86.312 98.5821 88.7039Z" fill="#FF6376"/>
<path d="M90.901 112.183C90.3374 113.142 89.7829 114.03 89.1558 114.908C77.1592 131.068 20.9616 124.499 12.0226 109.97L11.37 108.709C10.4274 106.823 9.64838 104.811 8.95107 102.735C15.4476 117.913 80.9815 130.593 93.5471 106.994C92.8103 108.742 91.8465 110.535 90.901 112.183Z" fill="#FF6376"/>
<path d="M75.7405 127.134C74.7051 127.739 73.6788 128.273 72.5891 128.724C61.5824 133.522 40.9839 133.65 26.8831 125.539L25.2408 124.522C23.8889 123.542 22.0745 122.135 20.7409 121.01C33.1152 131.111 64.6135 134.641 79.837 124.484C78.5563 125.279 77.0121 126.41 75.7405 127.134Z" fill="#FF6376"/>
<path d="M46.6283 132.152C44.8947 131.86 42.58 131.495 40.8555 131.13C43.5784 131.768 44.595 131.896 46.6283 132.152Z" fill="#FF6376"/>
<path d="M54.6817 132.652C53.1293 132.677 51.586 132.63 50.0519 132.51C48.8809 132.436 47.7916 132.299 46.6297 132.152C52.8023 132.931 57.0603 132.51 59.3754 132.287C57.8682 132.538 56.3067 132.636 54.6817 132.652Z" fill="#FF6376"/>
<path opacity="0.5" d="M76.2939 13.8785C86.2756 30.085 92.9369 54.4881 90.0127 77.6828C86.1747 108.126 65.6443 124.683 38.0495 121.204C27.52 119.876 18.7174 115.968 12.0226 109.97C18.585 122.284 30.5708 130.202 46.6193 132.225C74.2141 135.704 94.7445 119.147 98.5825 88.704C102.283 59.3482 90.7346 28.0699 76.2939 13.8785Z" fill="#FF6376"/>
<path opacity="0.3" d="M49.252 46.6779C55.8645 35.1165 56.9276 23.2937 51.6265 20.271C46.3253 17.2483 36.6675 24.1703 30.055 35.7316C23.4425 47.293 22.3794 59.1158 27.6805 62.1385C32.9816 65.1612 42.6395 58.2393 49.252 46.6779Z" fill="#FF6376"/>
<path opacity="0.3" d="M8.67007 79.2099C13.5133 40.7937 44.4989 5.67329 64.1058 8.14517C69.9878 8.88673 76.0848 13.1899 81.508 19.9117C75.7135 12.0386 68.9818 6.91901 62.5188 6.10421C42.912 3.63233 11.9263 38.7527 7.08308 77.1689C5.02699 93.4777 8.61974 107.111 16.6187 116.809C9.70901 107.249 6.76019 94.3589 8.67007 79.2099Z" fill="#FF6376"/>
</g>
</svg>


