<?xml version="1.0" standalone="no"?>
<!DOCTYPE svg PUBLIC "-//W3C//DTD SVG 1.1//EN" "http://www.w3.org/Graphics/SVG/1.1/DTD/svg11.dtd">
<svg xmlns="http://www.w3.org/2000/svg">
<metadata>Generated by Fontastic.me</metadata>
<defs>
<font id="untitled-font-3" horiz-adv-x="512">
<font-face font-family="untitled-font-3" units-per-em="512" ascent="480" descent="-32"/>
<missing-glyph horiz-adv-x="512" />

<glyph glyph-name="down-open" unicode="&#97;" d="M396 293c0 0-120-115-120-115-6-6-12-9-20-9-8 0-14 3-20 9 0 0-120 115-120 115-6 5-8 12-8 21 0 8 2 15 8 21 13 13 26 13 40 0 0 0 100-96 100-96 0 0 100 96 100 96 14 13 27 13 40 0 6-6 8-13 8-21 0-9-2-16-8-21"/>
<glyph glyph-name="a-b" unicode="&#98;" d="M157 189l-84 0-14-41-56 0 81 222 62 0 82-222-57 0z m-14 41l-28 82-28-82z m153-123l-54 0 0 299 54 0z m164 156c13-3 24-10 32-20 8-9 12-21 12-34 0-19-7-34-20-45-12-10-30-16-54-16l-104 0 0 223 101 0c23 0 41-5 53-15 12-9 19-24 19-42 0-13-4-25-11-34-7-8-17-14-28-17z m-80 17l35 0c19 0 28 8 28 24 0 16-9 24-28 24l-35 0z m38-88c20 0 30 8 30 25 0 8-2 14-7 18-6 5-13 7-23 7l-38 0 0-50z"/>
<glyph glyph-name="add" unicode="&#99;" d="M422 210l-362 0c-33 0-60 27-60 61 0 33 27 60 60 60l362 0c34 0 61-27 61-60 0-34-27-61-61-61z m-241-120l0 362c0 33 27 60 60 60 34 0 61-27 61-60l0-362c0-34-27-61-61-61-33 0-60 27-60 61z"/>
<glyph glyph-name="bell" unicode="&#100;" d="M414 289l0-131 53-53 0-26-422 0 0 26 53 53 0 131c0 81 43 148 118 166l0 18c0 21 18 39 40 39 22 0 40-18 40-39l0-18c75-18 118-86 118-166z m-105-236c0-29-24-53-53-53-29 0-53 24-53 53z"/>
<glyph glyph-name="calendar" unicode="&#101;" d="M0 304l0-256c0-19 13-32 32-32l448 0c19 0 32 13 32 32l0 256z m224-128c0-19-13-32-32-32l-32 0 0-32 48 0c10 0 16-6 16-16 0-10-6-16-16-16l-64 0c-10 0-16 6-16 16l0 48c0 19 13 32 32 32l32 0 0 32-48 0c-10 0-16 6-16 16 0 10 6 16 16 16l48 0c19 0 32-13 32-32z m112 0c26 0 48-22 48-48 0-26-22-48-48-48l-32 0c-10 0-16 6-16 16 0 10 6 16 16 16l32 0c10 0 16 6 16 16 0 10-6 16-16 16l-32 0c-10 0-16 6-16 16l0 64c0 10 6 16 16 16l64 0c10 0 16-6 16-16 0-10-6-16-16-16l-48 0 0-32z m144 288l-64 0 0 16c0 10-6 16-16 16l-64 0c-10 0-16-6-16-16l0-16-128 0 0 16c0 10-6 16-16 16l-64 0c-10 0-16-6-16-16l0-16-64 0c-19 0-32-13-32-32l0-96 512 0 0 96c0 19-13 32-32 32z m-128 0l32 0 0-32-32 0z m-224 0l32 0 0-32-32 0z"/>
<glyph glyph-name="cart" unicode="&#102;" d="M509 362c-3 3-10 6-13 6l-378 0-12 51c0 7-7 13-16 13l-74 0c-10 0-16-6-16-16 0-10 6-16 16-16l61 0 83-307c3-7 10-13 16-13l256 0c10 0 16 6 16 16 0 10-6 16-16 16l-243 0-10 35 285 13c6 0 13 6 16 13l32 176c0 6 0 9-3 13z m-141-122l-32 0 0-32c0-10-6-16-16-16-10 0-16 6-16 16l0 32-32 0c-10 0-16 6-16 16 0 10 6 16 16 16l32 0 0 32c0 10 6 16 16 16 10 0 16-6 16-16l0-32 32 0c10 0 16-6 16-16 0-10-6-16-16-16z"/>
<glyph glyph-name="close" unicode="&#103;" d="M320 128l-192 192c-18 18-18 46 0 64 18 18 46 18 64 0l192-192c18-18 18-46 0-64-18-18-46-18-64 0z m-192 64l192 192c18 18 46 18 64 0 18-18 18-46 0-64l-192-192c-18-18-46-18-64 0-18 18-18 46 0 64z"/>
<glyph glyph-name="copy" unicode="&#104;" d="M356 491l-256 0c-24 0-43-20-43-43l0-299 43 0 0 299 256 0z m-22-86l128-128 0-213c0-23-19-43-42-43l-235 0c-24 0-43 20-43 43l0 299c0 23 19 42 43 42z m-21-149l117 0-117 117z"/>
<glyph glyph-name="download" unicode="&#105;" d="M243 134c3-3 10-6 13-6 3 0 10 3 13 6l113 128c4 4 7 13 4 16-4 4-10 10-17 10l-64 0 0 208c0 10-7 16-17 16l-64 0c-10 0-17-6-17-16l0-208-64 0c-7 0-13-3-17-10 0-6 0-12 4-16z m191 26l0-96-356 0 0 96-65 0 0-128c0-19 13-32 32-32l422 0c19 0 32 13 32 32l0 128z"/>
<glyph glyph-name="edit" unicode="&#106;" d="M9 112l0-103 103 0 303 303-102 103z m486 280c11 11 11 28 0 39l-64 64c-11 11-28 11-39 0l-50-50 103-103z"/>
<glyph glyph-name="emails" unicode="&#107;" d="M416 96l0 157-122-80z m-416 157l0-157 122 77z m218-131c-4-4-7-4-10-4-3 0-6 0-10 4l-48 32-150-93c3-16 16-29 32-29l352 0c16 0 29 13 32 29l-150 93z m198 169c-3 16-16 29-32 29l-352 0c-16 0-29-13-32-29l208-137z m-320 122l0-61 93 0z m262-61l154 99c-3 16-16 29-32 29l-352 0c-16 0-29-13-32-29l154-99z m90-160l32 0c16 0 29 13 32 29l-64 38z m-35 157c22-7 35-23 35-45l0-6 64-42 0 157z"/>
<glyph glyph-name="envelope" unicode="&#108;" d="M512 152l0 196-150-100z m-512 196l0-196 150 96z m268-164c-4-4-8-4-12-4-4 0-8 0-12 4l-59 40-185-116c4-20 20-36 39-36l434 0c19 0 35 16 39 36l-185 116z m244 212c-4 20-20 36-39 36l-434 0c-19 0-35-16-39-36l256-172z"/>
<glyph glyph-name="fb" unicode="&#109;" d="M388 336l-99 0 0 64c0 19 13 32 33 32l33 0 0 80-66 0c-56 0-99-42-99-96l0-80-66 0 0-80 66 0 0-256 99 0 0 256 66 0z"/>
<glyph glyph-name="forms" unicode="&#110;" d="M480 116l0 280c0 18-13 31-32 31l-384 0c-19 0-32-13-32-31l0-280-32 0 0-15c0-9 6-16 16-16l480 0c10 0 16 7 16 16l0 15z m-416 280l384 0 0-249-384 0z"/>
<glyph glyph-name="search" unicode="&#111;" d="M372 188l130-130c13-14 13-34 0-48-7-7-17-10-24-10-7 0-17 3-24 10l-130 130c-34-24-75-38-119-38-113 0-205 93-205 205 0 113 92 205 205 205 112 0 205-92 205-205 0-44-14-85-38-119z m-167-34c85 0 153 68 153 153 0 85-68 154-153 154-85 0-154-69-154-154 0-85 69-153 154-153z"/>
<glyph glyph-name="rocket" unicode="&#112;" d="M181 240l-32-52c-1 0-1-1-1-2l3-66c0 0 1-1 1-2 0 0 1 0 1-1 1 0 2 0 3 0l56 28c8-10 18-16 29-19l2-29c0-2 1-4 3-4l25 0c1 0 2 0 3 1 0 1 1 2 1 2l0 31c5 3 17 9 29 25l56-28c1-1 2-1 3 0 1 0 2 1 2 3l4 65c0 1 0 2 0 2l-33 52c2 17 3 35 3 55-2 112-38 168-59 191-7 8-12 11-12 11-2 1-3 1-4 0-4-2-78-52-85-214 0 0-1-22 2-49z m51 40c-13 14-12 37 2 51 15 14 38 13 52-2 13-15 12-38-2-52-15-13-38-12-52 3z"/>
<glyph glyph-name="linked-in" unicode="&#117;" d="M98 349l-98 0 0-349 98 0z m299-4l-6 0c-10 4-16 4-22 4-64 0-104-48-117-67l0 67-110 0 0-349 110 0 0 190c0 0 83 121 117 32 0-79 0-222 0-222l111 0 0 235c-3 53-37 98-83 110z m-348 47c27 0 49 27 49 60 0 33-22 60-49 60-27 0-49-27-49-60 0-33 22-60 49-60z"/>
<glyph glyph-name="leads" unicode="&#118;" d="M407 392c33 0 60 26 60 60 0 33-27 60-60 60-34 0-61-27-61-60 0-34 27-60 61-60z m75-58c-3 15-15 27-30 27l-15 0c-3 0-9-3-12-3l-18-21-18 18c-3 3-10 6-13 6l-15 0c-15 0-27-12-30-27l-15-138c0-3 0-9 3-12 3-3 6-6 12-6l15 0 12-124c3-15 15-27 31-27l33 0c15 0 27 12 30 27l15 127 15 0c3 0 9 3 12 6 3 3 3 6 3 12z m-392-123l-60 0c-9 0-15-6-15-15l0-151c0-9 6-15 15-15l60 0c9 0 15 6 15 15l0 151c0 9-6 15-15 15z m151 150l-60 0c-9 0-15-6-15-15l0-301c0-9 6-15 15-15l60 0c9 0 15 6 15 15l0 301c0 9-6 15-15 15z"/>
<glyph glyph-name="image" unicode="&#120;" d="M464 512l-416 0c-10 0-16-6-16-16l0-480c0-10 6-16 16-16l416 0c10 0 16 6 16 16l0 480c0 10-6 16-16 16z m-16-384l-384 0 0 352 384 0z m-304 32l224 0c10 0 16 6 16 16l0 10c0 22-16 41-38 48l-45 3c-7 3-13 9-13 16l0 9c6 7 13 26 19 32 7 7 16 16 16 26 3 16-3 19-3 22 0 13 0 32-3 42 0 16-3 22-10 29-3 6-16 3-22 6-10 7-19 10-29 10-26 0-54-16-64-42-3-9-3-32-3-41 0-7-7-7-3-23 3-13 9-19 19-29 6-6 13-28 19-32l0-6c0-6-6-16-13-16l-45-10c-22-3-38-22-38-44l0-10c0-10 6-16 16-16z"/>
<glyph glyph-name="graph" unicode="&#121;" d="M496 32l-48 0 0 256c0 10-6 16-16 16-10 0-16-6-16-16l0-256-128 0 0 176c0 10-6 16-16 16-10 0-16-6-16-16l0-176-128 0 0 48c0 10-6 16-16 16-10 0-16-6-16-16l0-48-64 0 0 464c0 10-6 16-16 16-10 0-16-6-16-16l0-464c0-19 13-32 32-32l464 0c10 0 16 6 16 16 0 10-6 16-16 16z"/>
<glyph glyph-name="free" unicode="&#122;" d="M209 282l-12-3 6-24 13 3c7 2 11 8 9 16-2 7-8 10-16 8z m-5 168c-109-29-174-140-146-247 29-107 141-170 250-141 109 29 174 140 146 247-29 107-141 170-250 141z m-79-120c19 36 53 61 92 71 40 11 81 6 116-15 6-4 8-11 4-17-3-7-11-9-17-5-29 18-64 22-96 13-33-9-61-29-77-59-2-4-7-5-9-6-3 0-8-2-11 0-4 4-6 12-2 18z m190-45c7 2 13-2 15-9 2-7-2-14-9-16l-12-3 6-24 13 3c7 2 13-1 15-9 2-7-2-13-9-15l-25-7c-7-2-13 2-15 9l-26 97c-2 7 1 13 9 15l25 7c7 2 13-1 15-9 2-7-1-13-9-15l-12-3 6-25z m-50-71c6-3 5-11 2-17-2-4-5-4-7-5-5-1-8 1-11 2l-37 29 8-29c1-7-2-13-10-15-7-2-13 1-15 9l-26 97c-2 7 2 13 9 15l25 7c19 5 41-7 47-27 4-17-3-31-19-41z m-129-3l9-37c2-7-1-13-9-15-7-2-13 2-15 9l-26 97c-2 7 1 13 9 15l25 7c7 2 13-2 15-9 2-7-2-14-9-15l-12-4 6-24 12 3c8 2 14-1 16-9 2-7-2-13-9-15z m251-29c-19-36-53-61-92-71-40-11-81-6-116 15-6 4-8 11-4 17 4 7 11 9 17 5 29-18 64-22 96-13 33 9 61 29 77 59 4 7 11 9 18 5 6-3 8-11 4-17z m15 74c7 2 13-1 15-9 2-7-1-13-9-15l-25-7c-7-2-13 2-15 9l-26 97c-2 7 2 13 9 15l25 7c7 2 13-2 15-9 2-7-1-13-9-15l-12-4 6-24 13 4c7 2 13-2 15-9 2-8-1-14-9-16l-12-3 6-24z"/>
<glyph glyph-name="select-element" unicode="&#65;" d="M203 467c0 25-20 45-45 45-24 0-44-20-44-45 0-25 20-45 44-45 25 0 45 20 45 45z m0-199c0 25-20 45-45 45-24 0-44-20-44-45 0-25 20-45 44-45 25 0 45 20 45 45z m0-199c0 25-20 45-45 45-24 0-44-20-44-45 0-25 20-45 44-45 25 0 45 20 45 45z m170 398c0 25-19 45-44 45-25 0-45-20-45-45 0-25 20-45 45-45 25 0 44 20 44 45z m0-199c0 25-19 45-44 45-25 0-45-20-45-45 0-25 20-45 45-45 25 0 44 20 44 45z m0-199c0 25-19 45-44 45-25 0-45-20-45-45 0-25 20-45 45-45 25 0 44 20 44 45z"/>
<glyph glyph-name="settings" unicode="&#66;" d="M487 192l-52 29c4 13 4 22 4 35 0 13 0 22-4 35l52 29c6 3 9 13 6 22l-48 84c-3 6-13 9-22 6l-52-29c-16 13-38 26-60 35l0 58c0 10-7 16-16 16l-96 0c-7 0-16-6-16-16l0-58c-23-9-42-22-58-35l-51 29c-10 3-19 0-23-6l-48-84c-6-6-3-16 7-22l51-29c-3-13-6-22-6-35 0-13 0-22 3-35l-48-29c-7-3-10-13-7-22l48-84c4-6 13-9 23-6l51 29c16-13 35-26 58-35l0-58c0-10 9-16 16-16l96 0c9 0 16 6 16 16l0 58c22 6 41 19 60 35l52-29c6-3 16-3 22 6l48 84c6 6 3 16-6 22z m-240-64c-71 0-128 58-128 128 0 70 57 128 128 128 70 0 128-58 128-128 0-70-55-128-128-128z"/>
<glyph glyph-name="shape" unicode="&#67;" d="M378 400l112 112-362 0-112-112z m-10-32l-368 0 0-368 368 0z m32 10l0-362 112 112 0 362z"/>
<glyph glyph-name="timer" unicode="&#68;" d="M368 288c-80 0-144-64-144-144 0-80 64-144 144-144 80 0 144 64 144 144 0 80-64 144-144 144z m61-205c-3-3-7-3-13-3-6 0-10 0-13 3l-48 48c-3 3-3 7-3 13l0 64c0 10 6 16 16 16 10 0 16-6 16-16l0-58 45-44c3-4 3-16 0-23z m-227 128l-42 42-42-42c-12-16-22-35-22-57l0-26 96 0c0 6 0 10 0 16 0 22 3 45 13 64-3 0-3 3-3 3z m22 211l0 26-128 0 0-26c0-22 10-41 22-57l42-42 42 42c12 16 22 35 22 57z m16-160l-26 26 32 32c26 26 42 64 42 102l0 58 16 0c10 0 16 6 16 16 0 10-6 16-16 16l-288 0c-10 0-16-6-16-16 0-10 6-16 16-16l16 0 0-58c0-38 16-76 42-102l32-32-32-32c-26-26-42-64-42-102l0-58-16 0c-10 0-16-6-16-16 0-10 6-16 16-16l195 0c-6 10-9 22-13 32l-134 0 0 58c0 28 13 57 32 80l42 41c3 3 6 10 6 13 0 3-3 10-3 13l-45 41c-19 20-32 48-32 80l0 58 192 0 0-58c0-28-13-57-32-80l-45-41c0-3-3-10-3-13 0-3 3-10 3-13l39-38c6 9 12 19 22 25z"/>
<glyph glyph-name="twitter" unicode="&#69;" d="M512 425c-19-10-38-14-61-17 23 13 39 34 45 61-19-14-42-21-67-27-19 20-48 33-77 33-54 0-102-50-102-111 0-10 0-17 3-24-90 4-167 48-218 115-9-17-13-37-13-57 0-37 20-71 48-91-16 0-32 6-48 13 0-54 36-98 84-108-10-3-20-3-29-3-7 0-13 0-19 3 12-44 51-78 99-78-35-30-80-47-131-47-10 0-16 0-26 0 48-34 102-50 160-50 192 0 298 168 298 314 0 3 0 10 0 13 22 17 41 37 54 61z"/>
<glyph glyph-name="installation" unicode="&#70;" d="M189 138l-117 118 117 118-35 36-154-154 154-154z m134 0l117 118-117 118 35 36 154-154-154-154z"/>
<glyph glyph-name="video" unicode="&#71;" d="M480 512l-448 0c-19 0-32-13-32-32l0-448c0-19 13-32 32-32l448 0c19 0 32 13 32 32l0 448c0 19-13 32-32 32z m-64-32l64 0 0-64-64 0z m0-96l64 0 0-64-64 0z m0-96l64 0 0-64-64 0z m0-96l64 0 0-64-64 0z m-320-160l-64 0 0 64 64 0z m0 96l-64 0 0 64 64 0z m0 96l-64 0 0 64 64 0z m0 96l-64 0 0 64 64 0z m0 96l-64 0 0 64 64 0z m288-384l-256 0 0 448 256 0z m96-16l0 16-64 0 0 64 64 0z m-272 160c3 0 6 0 6 3l128 64c7 0 10 7 10 13 0 6-3 13-10 13l-128 64c-6 3-9 3-16 0-3-3-6-7-6-13l0-128c0-6 3-10 6-13 4-3 7-3 10-3z"/>
<glyph glyph-name="vision" unicode="&#72;" d="M256 444c-116 0-216-78-256-188 40-110 140-188 256-188 116 0 216 78 256 188-40 110-140 188-256 188z m0-313c-64 0-116 56-116 125 0 69 52 125 116 125 64 0 116-56 116-125 0-69-52-125-116-125z m0 200c-39 0-70-33-70-75 0-42 31-75 70-75 39 0 70 33 70 75 0 42-31 75-70 75z"/>
<glyph glyph-name="options" unicode="&#113;" d="M176 256c-38 0-70 29-77 64l-99 0 0-128 259 0c7 35 39 64 77 64 38 0 70-29 77-64l99 0 0 128-259 0c-7-35-39-64-77-64z m160-160c-38 0-70 29-77 64l-259 0 0-96c0-19 13-32 32-32l448 0c19 0 32 13 32 32l0 96-99 0c-7-35-39-64-77-64z m144 384l-448 0c-19 0-32-13-32-32l0-96 99 0c7 35 39 64 77 64 38 0 70-29 77-64l259 0 0 96c0 19-13 32-32 32z m-304-192c27 0 48 21 48 48 0 27-21 48-48 48-27 0-48-21-48-48 0-27 21-48 48-48z m160-160c27 0 48 21 48 48 0 27-21 48-48 48-27 0-48-21-48-48 0-27 21-48 48-48z"/>
<glyph glyph-name="picture" unicode="&#114;" d="M480 448l-448 0c-19 0-32-13-32-32l0-320c0-19 13-32 32-32l448 0c19 0 32 13 32 32l0 320c0 19-13 32-32 32z m0-32l0-160-102 93c-7 6-16 6-23 0l-128-122-70 87c-7 6-19 6-26 0l-99-125 0 227z"/>
<glyph glyph-name="print" unicode="&#116;" d="M496 224l-48 0 0 256c0 19-13 32-32 32l-320 0c-19 0-32-13-32-32l0-256-48 0c-10 0-16-6-16-16l0-176c0-19 13-32 32-32l448 0c19 0 32 13 32 32l0 176c0 10-6 16-16 16z m-400 256l320 0 0-256-16 0c-6 0-13-3-13-10l-29-54-204 0-29 54c0 7-7 10-13 10l-16 0z"/>
<glyph glyph-name="forms-1" unicode="&#115;" d="M480 116l0 280c0 18-13 31-32 31l-384 0c-19 0-32-13-32-31l0-280-32 0 0-15c0-9 6-16 16-16l480 0c10 0 16 7 16 16l0 15z m-416 280l384 0 0-249-384 0z m58-116l122 0c13 0 24-11 24-24l0-49c0-13-11-24-24-24l-122 0c-14 0-24 11-24 24l0 49c0 13 10 24 24 24z"/>
<glyph glyph-name="bars" unicode="&#119;" d="M116 137c25 0 47 22 47 48 0 7 0 10-3 16l88 71c6-3 16-6 25-6 25 0 47 23 47 48 0 4 0 4 0 7l79 39c10-10 19-13 32-13 25 0 47 22 47 48 0 26-22 49-47 49-26 0-48-23-48-49 0-3 0-3 0-6l-78-39c-7 6-19 13-32 13-25 0-47-23-47-49 0-6 0-9 3-16l-88-71c-7 3-16 7-25 7-26 0-48-23-48-49 0-26 22-48 48-48z m380-105l-48 0 0 256c0 10-6 16-16 16-10 0-16-6-16-16l0-256-128 0 0 176c0 10-6 16-16 16-10 0-16-6-16-16l0-176-128 0 0 48c0 10-6 16-16 16-10 0-16-6-16-16l0-48-64 0 0 464c0 10-6 16-16 16-10 0-16-6-16-16l0-464c0-19 13-32 32-32l464 0c10 0 16 6 16 16 0 10-6 16-16 16z"/>
<glyph glyph-name="conversion" unicode="&#73;" d="M495 34l-461 0 0 460c0 10-7 16-16 16-10 0-16-6-16-16l0-460c0-20 13-32 32-32l461 0c9 0 16 6 16 16 0 9-7 16-16 16z m0 413l-127 0c-7 0-13-3-16-10-4-6 0-13 3-16l51-51-102-108-35 38c-6 7-16 7-22 0l-175-174c-6-7-6-16 0-23 0-6 6-6 9-6 4 0 10 0 13 3l162 166 35-35c7-7 19-7 26-4l114 115 51-51c3 0 9-3 13-3 3 0 3 0 6 0 6 3 10 9 10 16l0 127c0 9-7 16-16 16z"/>
<glyph glyph-name="visitors" unicode="&#74;" d="M246 382c36 0 65 29 65 65 0 36-29 65-65 65-36 0-65-29-65-65 0-36 29-65 65-65z m49-32l-16 0c-4 0-10-4-13-4l-20-22-19 22c-4 0-10 4-13 4l-17 0c-16 0-29-13-32-30l-16-113c0-4 0-10 3-13 3-4 10-7 13-7l16 0 13-166c3-16 16-29 33-29l35 0c17 0 30 13 33 29l16 166 16 0c4 0 10 3 13 7 4 3 4 6 4 13l-17 113c0 17-13 30-32 30z m114 32c36 0 65 29 65 65 0 36-29 65-65 65-36 0-65-29-65-65 0-36 29-65 65-65z m-325 130c-36 0-65-29-65-65 0-36 29-65 65-65 36 0 65 29 65 65 0 36-29 65-65 65z m406-192c-3 17-16 30-33 30l-16 0c-3 0-10-4-13-4l-19-22-20 19c-3 3-10 7-13 7l-16 0c-3 0-3 0-7 0 4-7 7-17 10-26l13-114c3-13-3-29-13-39-3-7-10-10-16-13l10-107c3-17 16-30 32-30l36 0c16 0 29 13 32 30l17 136 16 0c3 0 10 3 13 7 3 3 3 6 3 13z m-374-110l17 117c0 10 3 16 6 23 0 0-3 0-6 0l-17 0c-3 0-9-4-13-4l-19-22-20 22c-3 0-9 4-13 4l-16 0c-16 0-29-13-32-30l-17-113c0-4 0-10 4-13 3-4 9-7 13-7l16 0 13-133c3-16 16-29 32-29l36 0c16 0 29 13 33 29l9 104c-6 3-13 6-16 13-6 10-10 26-10 39z"/>
<glyph glyph-name="leads-2" unicode="&#75;" d="M81 129l-64 0c-9 0-16-6-16-16l0-95c0-10 7-16 16-16l64 0c9 0 16 6 16 16l0 95c0 10-7 16-16 16z m159 95l-64 0c-9 0-16-6-16-16l0-190c0-10 7-16 16-16l64 0c9 0 16 6 16 16l0 190c0 10-7 16-16 16z m174 159c35 0 64 29 64 64 0 35-29 63-64 63-35 0-63-28-63-63 0-35 28-64 63-64z m80-60c-3 16-16 28-32 28l-16 0c-3 0-9-3-13-3l-19-22-19 19c-3 3-9 6-12 6l-159 0c-19 0-32-12-32-31 0-20 13-32 32-32l114 0 26-258c3-15 15-28 31-28l35 0c16 0 29 13 32 28l16 131 16 0c3 0 9 3 12 6 4 3 4 6 4 13z"/>
<glyph glyph-name="popups" unicode="&#76;" d="M0 391c0 15 12 27 27 27l458 0c15 0 27-12 27-27l0-270c0-15-12-27-27-27l-458 0c-15 0-27 12-27 27z m148-243c0 15 12 27 27 27l162 0c15 0 27-12 27-27 0-15-12-27-27-27l-162 0c-15 0-27 12-27 27z m-81 189c-7 0-13-6-13-14 0-7 6-13 13-13l378 0c7 0 13 6 13 13 0 8-6 14-13 14z m39-68c0 8 6 14 13 14l274 0c7 0 13-6 13-14 0-7-6-13-13-13l-274 0c-7 0-13 6-13 13z m374 133c-7 0-13-6-13-14 0-7 6-13 13-13 8 0 14 6 14 13 0 8-6 14-14 14z"/>
<glyph glyph-name="laptop" unicode="&#77;" d="M427 128c23 0 42 19 42 43l0 213c0 23-19 43-42 43l-342 0c-23 0-42-20-42-43l0-213c0-24 19-43 42-43l-85 0 0-43 512 0 0 43z m-342 256l342 0 0-213-342 0z"/>
</font>
</defs>
</svg>
